# xmcd CD database file
#
# Track frame offsets:
#	150
#	18985
#	36682
#	51840
#	66915
#	80155
#	94195
#	113815
#	127562
#	140530
#	151665
#	168367
#	181967
#	194895
#	208445
#	222282
#	233510
#	252572
#	266697
#	282145
#	296180
#
# Disc length: 4142 seconds
#
# Revision: 0
# Processed by: cddbd v1.5.2PL0 Copyright (c) Steve Scherf et al.
# Submitted via: CDex 1.51
#
DISCID=46102c15
DTITLE=New Orleans Express - Red Beans And Rice
DYEAR=1900
DGENRE=Jazz
TTITLE0=Red Beans And Rice
TTITLE1=Tishomingo Blues
TTITLE2=Love Nest
TTITLE3=I Want A Girl
TTITLE4=Why Don't You Do Right
TTITLE5=Worn Out Blues
TTITLE6=Pleure Pas, Nelly
TTITLE7=There'll Be Some Changes Made
TTITLE8=Goin' Home
TTITLE9=Trials
TTITLE10=Skeleton In The Cupboard
TTITLE11=Nobody Knows You When You're Down And Out
TTITLE12=Sweet Emmalina
TTITLE13=Jakten Pa Moby Dick Gar Vidare
TTITLE14=Duff Campbell's Revenge
TTITLE15=Young Woman's Blues
TTITLE16=Walkin' Stick
TTITLE17=Gee Baby, Ain't I Good To You
TTITLE18=Take A Note From The South
TTITLE19=Shake It And Brake It
TTITLE20=Ce Mossieu  Qui Parte
EXTD=
EXTT0=
EXTT1=
EXTT2=
EXTT3=
EXTT4=
EXTT5=
EXTT6=
EXTT7=
EXTT8=
EXTT9=
EXTT10=
EXTT11=
EXTT12=
EXTT13=
EXTT14=
EXTT15=
EXTT16=
EXTT17=
EXTT18=
EXTT19=
EXTT20=
PLAYORDER=
